<svg xmlns="http://www.w3.org/2000/svg" viewBox="0 0 100 100" width="100%" height="100%">
  <!-- Warm Pink Circle base -->
  <circle cx="50" cy="50" r="48" fill="#fce7f3" stroke="#ec4899" stroke-width="2" />
  
  <!-- Illustrative character details -->
  <!-- Clothing -->
  <path d="M 22 84 C 22 72 34 64 50 64 C 66 64 78 72 78 84 Z" fill="#4c1d95" />
  <!-- Neck -->
  <rect x="46" y="54" width="8" height="12" fill="#ffedd5" />
  <!-- Long Hair (Back) -->
  <path d="M 32 40 C 26 50 26 70 32 76 C 36 78 35 44 50 44 C 65 44 64 78 68 76 C 74 70 74 50 68 40 Z" fill="#b45309" />
  <!-- Head -->
  <circle cx="50" cy="38" r="15" fill="#ffedd5" />
  <!-- Hair front bangs -->
  <path d="M 33 34 C 35 24 65 24 67 34 C 67 34 50 26 33 34 Z" fill="#b45309" />
  <!-- Eyes -->
  <circle cx="44" cy="36" r="1.5" fill="#1e293b" />
  <circle cx="56" cy="36" r="1.5" fill="#1e293b" />
  <!-- Smile -->
  <path d="M 46 45 Q 50 49 54 45" fill="none" stroke="#1e293b" stroke-width="1.5" stroke-linecap="round" />
</svg>
