<svg xmlns="http://www.w3.org/2000/svg" viewBox="0 0 100 100" width="100%" height="100%">
  <!-- Amber/Orange Circle base -->
  <circle cx="50" cy="50" r="48" fill="#fef3c7" stroke="#f59e0b" stroke-width="2" />
  
  <!-- Illustrative character details -->
  <!-- Clothing -->
  <path d="M 22 84 C 22 72 34 64 50 64 C 66 64 78 72 78 84 Z" fill="#b91c1c" />
  <!-- Neck -->
  <rect x="46" y="54" width="8" height="12" fill="#fed7aa" />
  <!-- Hair back bun bundle -->
  <circle cx="50" cy="22" r="8" fill="#111827" />
  <!-- Head -->
  <circle cx="50" cy="39" r="15" fill="#fed7aa" />
  <!-- Dark hair frame -->
  <path d="M 33 34 C 34 22 66 22 67 34 L 67 42 C 67 42 63 32 50 32 C 37 32 33 42 33 42 Z" fill="#111827" />
  <!-- Small details: red bindi dot indicator -->
  <circle cx="50" cy="32" r="1.5" fill="#ef4444" />
  <!-- Eyes -->
  <circle cx="43" cy="37" r="1.5" fill="#111827" />
  <circle cx="57" cy="37" r="1.5" fill="#111827" />
  <!-- Friendly Smile -->
  <path d="M 45 46 Q 50 50 55 46" fill="none" stroke="#111827" stroke-width="1.5" stroke-linecap="round" />
</svg>
